<svg width="50" height="50" viewBox="0 0 50 50" fill="none" xmlns="http://www.w3.org/2000/svg">
<path d="M25 18.5556C29.1114 18.5556 32.4444 15.2226 32.4444 11.1111C32.4444 6.99966 29.1114 3.66667 25 3.66667C20.8885 3.66667 17.5555 6.99966 17.5555 11.1111C17.5555 15.2226 20.8885 18.5556 25 18.5556ZM18.5555 25C18.5555 20.8885 15.2226 17.5556 11.1111 17.5556C6.99965 17.5556 3.66666 20.8885 3.66666 25C3.66666 29.1115 6.99965 32.4444 11.1111 32.4444C15.2226 32.4444 18.5555 29.1115 18.5555 25ZM25 46.3333C29.1114 46.3333 32.4444 43.0003 32.4444 38.8889C32.4444 34.7774 29.1114 31.4444 25 31.4444C20.8885 31.4444 17.5555 34.7774 17.5555 38.8889C17.5555 43.0003 20.8885 46.3333 25 46.3333ZM46.3333 25C46.3333 20.8885 43.0003 17.5556 38.8889 17.5556C34.7774 17.5556 31.4444 20.8885 31.4444 25C31.4444 29.1115 34.7774 32.4444 38.8889 32.4444C43.0003 32.4444 46.3333 29.1115 46.3333 25Z" fill="white" stroke="black"/>
</svg>
