<svg viewBox="0 0 24 24" xmlns="http://www.w3.org/2000/svg"><path fill="#FFF" d="M14.5 20v-.001c-.49-.01-.9-.35-.984-.83l-1.27-7.109v0c-.03-.14-.16-.23-.3-.21 -.11.01-.19.09-.21.2l-1.27 7.109v0c-.1.54-.62.9-1.17.8 -.42-.08-.74-.4-.81-.81l-1.3-7.275h0c-.03-.14-.16-.23-.3-.21 -.11.01-.19.09-.21.2l-.242 1.28v0c-.09.47-.51.81-.99.81l-4.5.01v0 0c-.56 0-1-.45-1-1 0-.56.44-1 1-1l3.463-.02v0c.11 0 .22-.09.24-.2l1.31-6.99h0c.08-.48.5-.82.98-.82v0 0c.48 0 .89.34.98.82l1.27 7.109v0c.02.13.15.22.29.2 .1-.02.18-.1.2-.21l1.27-7.109v0c.09-.55.61-.91 1.16-.81 .41.07.73.39.8.8l1.27 7.109v0c.02.13.15.22.29.2 .1-.02.18-.1.2-.21l1.27-7.109v0c.08-.48.5-.83.98-.83v0 0c.48 0 .89.34.98.81l1.31 6.98H19.2c.02.11.12.2.24.2l3.46.01v0c.55 0 1 .44 1 1 0 .55-.45 1-1 1v0l-4.5-.02v0c-.48-.01-.9-.35-.98-.82l-.25-1.29v0c-.03-.14-.16-.23-.3-.21 -.11.01-.19.09-.21.2l-1.3 7.27v0c-.09.47-.5.82-.99.82Z"/></svg>