<svg viewBox="0 0 24 24" xmlns="http://www.w3.org/2000/svg"><g fill="#00db45"><path d="M11.78 13.71l-2.25-2.25c-.3-.3-.77-.3-1.07 0 -.3.29-.3.76 0 1.06l2.25 2.25c.29.29.76.29 1.06 0 .29-.3.29-.77 0-1.07Z"/><path d="M14.46 9.96l-3.75 3.75c-.3.29-.3.76 0 1.06 .29.29.76.29 1.06 0l3.75-3.75c.29-.3.29-.77 0-1.07 -.3-.3-.77-.3-1.07 0Z"/><path d="M20.25 12c0 4.55-3.7 8.25-8.25 8.25 -4.56 0-8.25-3.7-8.25-8.25 0-4.56 3.69-8.25 8.25-8.25 4.55-.001 8.25 3.69 8.25 8.25Zm1.5 0c-.001-5.39-4.37-9.75-9.75-9.75 -5.39 0-9.75 4.36-9.75 9.75 0 5.38 4.36 9.75 9.75 9.75 5.38 0 9.75-4.37 9.75-9.75Z" transform="rotate(-90 12 12)"/></g><path fill="none" d="M24 24H0V0h24Z"/></svg>