<svg viewBox="0 0 24 24" xmlns="http://www.w3.org/2000/svg"><path fill="#FFF" d="M18.5 9v0c0-.56-.45-1-1-1h-.75v0c-.14 0-.25-.12-.25-.25V5v0c.12-2.62-1.89-4.86-4.5-5h-.001c-2.62.14-4.63 2.38-4.5 5v2.75h-.001c0 .13-.12.25-.25.25h-.75v0c-.56 0-1 .44-1 1 0 .55.44 1 1 1h.75v0c.13 0 .25.11.25.25V17v0c-.13 1.5.42 2.98 1.5 4.032V22.5H8.99c0 .82.67 1.5 1.5 1.5h3v0c.82 0 1.5-.68 1.5-1.5v-1.468l-.001 0c1.07-1.06 1.62-2.54 1.5-4.04v-6.75 0c0-.14.11-.25.25-.25h.75v0c.55 0 1-.45 1-1Zm-4 8c0 1.343-.36 2.3-.97 2.61l-.001-.001c-.34.17-.54.51-.54.88v1.25 0c0 .13-.12.25-.25.25h-1.5v0c-.14 0-.25-.12-.25-.25v-1.25 0c0-.38-.21-.72-.54-.89 -.61-.32-.97-1.27-.97-2.62v-6.75 0c0-.14.11-.25.25-.25h4.5v0c.13 0 .25.11.25.25Z"/></svg>