<svg viewBox="0 0 24 24" xmlns="http://www.w3.org/2000/svg"><g fill="#FFF"><path d="M22.667 16.93v0c-.67 0-1.22.54-1.22 1.21v1.85h-.001c-.01.86-.71 1.56-1.58 1.57H4.09v0c-.87-.01-1.57-.71-1.58-1.57v-1.86 0c0-.67-.55-1.22-1.212-1.22 -.67 0-1.22.54-1.212 1.21v1.85H.09c-.01 2.2 1.78 3.99 3.99 4h15.76v0c2.2 0 4-1.8 4-4v-1.86 0c0-.67-.55-1.22-1.22-1.22 -.01-.01-.01 0-.01 0Z"/><path d="M12 0v0c-1.08 0-1.939.86-1.939 1.93v9.066 0c0 .13-.12.25-.25.25h-2.66v0c-.54 0-.97.43-.97.97 0 .23.08.45.23.63l4.84 5.57v0c.35.4.96.44 1.36.09 .03-.04.06-.07.09-.1l4.84-5.58v0c.35-.41.3-1.02-.1-1.37 -.18-.16-.41-.24-.64-.24h-2.66v0c-.14 0-.25-.12-.25-.25V1.9 1.89c0-1.08-.87-1.94-1.939-1.94Z"/></g></svg>