<svg viewBox="0 0 24 24" xmlns="http://www.w3.org/2000/svg"><g fill="#FFF"><path d="M17.83 6.16c3.22 3.22 3.22 8.44 0 11.66 -3.23 3.22-8.45 3.22-11.67 0 -3.23-3.23-3.23-8.45-.01-11.67 .29-.3.29-.77-.01-1.07 -.3-.3-.77-.3-1.07 0 -3.81 3.8-3.81 9.98 0 13.78 3.8 3.8 9.98 3.8 13.78-.01 3.8-3.81 3.8-9.99-.01-13.79 -.3-.3-.77-.3-1.07 0 -.3.29-.3.76 0 1.06Z"/><path d="M11.25 4v9c0 .41.33.75.75.75 .41 0 .75-.34.75-.75V4c0-.42-.34-.75-.75-.75 -.42 0-.75.33-.75.75Z"/><path d="M8.46 10.53l3 3c.29.29.76.29 1.06 0l3-3c.29-.3.29-.77 0-1.07 -.3-.3-.77-.3-1.07 0l-3 3h1.06l-3-3c-.3-.3-.77-.3-1.07 0 -.3.29-.3.76 0 1.06Z"/></g><path fill="none" d="M0 0h24v24H0Z"/></svg>