<svg width="347" height="48" viewBox="0 0 347 48" fill="none" xmlns="http://www.w3.org/2000/svg">
<g clip-path="url(#clip0_2310_24154)">
<path d="M72.0596 48C68.9887 48 66.2803 47.2568 63.9345 45.7705C61.5887 44.2842 59.7546 42.2514 58.4325 39.6721C57.1103 37.0929 56.4492 34.1639 56.4492 30.8852C56.4492 27.6066 57.1103 24.6995 58.4325 22.1639C59.7546 19.5847 61.5887 17.5738 63.9345 16.1311C66.323 14.6448 69.0527 13.9016 72.1236 13.9016C74.64 13.9016 76.8365 14.4044 78.7132 15.4098C80.6325 16.4153 82.1253 17.8361 83.1916 19.6721V0H89.9732V47.2131H83.8954L83.1916 42.1639C82.168 43.694 80.7605 45.0492 78.9691 46.2295C77.1778 47.4098 74.8746 48 72.0596 48ZM73.2751 41.9672C76.1754 41.9672 78.5426 40.9399 80.3766 38.8852C82.2533 36.8306 83.1916 34.1858 83.1916 30.9508C83.1916 27.6721 82.2533 25.0273 80.3766 23.0164C78.5426 20.9617 76.1754 19.9344 73.2751 19.9344C70.3749 19.9344 67.9864 20.9617 66.1097 23.0164C64.233 25.0273 63.2947 27.6721 63.2947 30.9508C63.2947 33.0929 63.7212 34.9945 64.5743 36.6557C65.4273 38.3169 66.6002 39.6284 68.093 40.5902C69.6285 41.5082 71.3558 41.9672 73.2751 41.9672Z" fill="white"/>
<path d="M110.231 48C106.393 48 103.365 46.776 101.147 44.3279C98.9715 41.8798 97.8839 38.2295 97.8839 33.3771V14.6885H104.665V32.6557C104.665 38.9508 107.182 42.0984 112.215 42.0984C114.731 42.0984 116.8 41.1803 118.421 39.3443C120.041 37.5082 120.852 34.8852 120.852 31.4754V14.6885H127.633V47.2131H121.619L121.108 41.5082C120.127 43.5191 118.676 45.1148 116.757 46.2951C114.88 47.4317 112.705 48 110.231 48Z" fill="white"/>
<path d="M136.26 47.2131V14.6885H142.338L142.914 20.8525C144.023 18.7104 145.558 17.0273 147.52 15.8033C149.525 14.5355 151.935 13.9016 154.75 13.9016V21.1803H152.894C151.018 21.1803 149.333 21.5082 147.84 22.1639C146.39 22.776 145.217 23.847 144.321 25.3771C143.468 26.8634 143.042 28.9399 143.042 31.6066V47.2131H136.26Z" fill="white"/>
<path d="M169.457 47.2131L157.557 14.6885H164.658L173.487 40.5902L182.316 14.6885H189.354L177.518 47.2131H169.457Z" fill="white"/>
<path d="M208.145 48C205.031 48 202.259 47.3006 199.828 45.9016C197.439 44.459 195.563 42.4699 194.198 39.9344C192.833 37.3989 192.151 34.4481 192.151 31.082C192.151 27.6721 192.812 24.6776 194.134 22.0984C195.499 19.5191 197.375 17.5082 199.764 16.0656C202.195 14.623 205.01 13.9016 208.209 13.9016C211.322 13.9016 214.031 14.623 216.334 16.0656C218.637 17.4645 220.429 19.3443 221.708 21.7049C222.988 24.0656 223.627 26.6667 223.627 29.5082C223.627 29.9454 223.606 30.4262 223.563 30.9508C223.563 31.4317 223.542 31.9781 223.499 32.5902H198.804C199.018 35.7377 200.02 38.1421 201.811 39.8033C203.645 41.4208 205.756 42.2295 208.145 42.2295C210.064 42.2295 211.664 41.7924 212.943 40.918C214.265 40 215.246 38.776 215.886 37.2459H222.668C221.815 40.306 220.109 42.8634 217.55 44.918C215.033 46.9727 211.898 48 208.145 48ZM208.145 19.6066C205.884 19.6066 203.88 20.306 202.131 21.7049C200.382 23.0601 199.316 25.1148 198.932 27.8689H216.846C216.718 25.3333 215.844 23.3224 214.223 21.8361C212.602 20.3497 210.576 19.6066 208.145 19.6066Z" fill="white"/>
<path d="M243.331 48C239.322 48 236.017 46.9945 233.415 44.9836C230.813 42.9727 229.32 40.306 228.937 36.9836H235.782C236.123 38.4699 236.934 39.7596 238.213 40.8525C239.493 41.9016 241.177 42.4262 243.267 42.4262C245.315 42.4262 246.807 41.9891 247.746 41.1148C248.684 40.2404 249.153 39.235 249.153 38.0984C249.153 36.4372 248.492 35.3224 247.17 34.7541C245.89 34.1421 244.099 33.5956 241.796 33.1148C240.005 32.7213 238.213 32.1967 236.422 31.541C234.673 30.8852 233.202 29.9672 232.007 28.7869C230.856 27.5628 230.28 25.9235 230.28 23.8689C230.28 21.0273 231.346 18.6667 233.479 16.7869C235.611 14.8634 238.597 13.9016 242.436 13.9016C245.976 13.9016 248.833 14.776 251.009 16.5246C253.227 18.2732 254.527 20.7432 254.911 23.9344H248.386C248.172 22.5355 247.533 21.4426 246.466 20.6557C245.443 19.8689 244.056 19.4754 242.308 19.4754C240.602 19.4754 239.279 19.847 238.341 20.5902C237.403 21.2896 236.934 22.2077 236.934 23.3443C236.934 24.4809 237.573 25.377 238.853 26.0328C240.175 26.6885 241.903 27.2787 244.035 27.8033C246.168 28.2842 248.13 28.8525 249.921 29.5082C251.755 30.1202 253.226 31.0383 254.335 32.2623C255.444 33.4863 255.999 35.2787 255.999 37.6393C256.041 40.612 254.911 43.082 252.608 45.0492C250.348 47.0164 247.255 48 243.331 48Z" fill="white"/>
<path d="M28.4343 9.95264C28.4343 13.9766 25.2517 17.2386 21.3257 17.2386C17.3998 17.2386 14.2171 13.9766 14.2171 9.95264C14.2171 5.92871 17.3998 2.66667 21.3257 2.66667C25.2517 2.66667 28.4343 5.92871 28.4343 9.95264Z" fill="white"/>
<path d="M7.10857 17.2386C11.0345 17.2386 14.2171 20.5007 14.2171 24.5246C14.2171 28.5485 11.0345 31.8106 7.10857 31.8106C3.18262 31.8106 1.71609e-07 28.5485 0 24.5246C-1.71609e-07 20.5007 3.18261 17.2386 7.10857 17.2386Z" fill="white"/>
<path d="M28.4343 39.0965C28.4343 43.1205 25.2517 46.3825 21.3257 46.3825C17.3998 46.3825 14.2171 43.1205 14.2171 39.0965C14.2171 35.0726 17.3998 31.8106 21.3257 31.8106C25.2517 31.8106 28.4343 35.0726 28.4343 39.0965Z" fill="white"/>
<path d="M35.5429 17.2386C39.4688 17.2386 42.6514 20.5007 42.6514 24.5246C42.6514 28.5485 39.4688 31.8106 35.5429 31.8106C31.6169 31.8106 28.4343 28.5485 28.4343 24.5246C28.4343 20.5007 31.6169 17.2386 35.5429 17.2386Z" fill="white"/>
</g>
<path fill-rule="evenodd" clip-rule="evenodd" d="M292.5 7.00012C281.178 7.00012 272 16.1783 272 27.5001C272 38.822 281.178 48.0001 292.5 48.0001H326.5C337.822 48.0001 347 38.822 347 27.5001C347 16.1783 337.822 7.00012 326.5 7.00012H292.5ZM287.695 35.7234C288.413 36.0821 289.25 36.2614 290.206 36.2614C291.401 36.2614 292.469 35.9796 293.408 35.416C294.347 34.8354 295.09 34.0498 295.637 33.0592C296.183 32.0516 296.457 30.9074 296.457 29.6265C296.457 28.3457 296.183 27.2014 295.637 26.1938C295.09 25.1862 294.347 24.3921 293.408 23.8114C292.469 23.2308 291.401 22.9405 290.206 22.9405C289.13 22.9405 288.251 23.1539 287.567 23.5809C286.901 24.0078 286.363 24.5031 285.954 25.0667V17.5096H282.675V35.954H285.595L285.954 34.212C286.398 34.861 286.978 35.3648 287.695 35.7234ZM292.102 32.342C291.418 33.0422 290.556 33.3923 289.514 33.3923C288.455 33.3923 287.584 33.0422 286.901 32.342C286.235 31.6247 285.902 30.711 285.902 29.6009C285.902 28.4908 286.235 27.5857 286.901 26.8855C287.584 26.1682 288.455 25.8096 289.514 25.8096C290.556 25.8096 291.418 26.1682 292.102 26.8855C292.785 27.6028 293.126 28.5165 293.126 29.6265C293.126 30.7366 292.785 31.6418 292.102 32.342ZM302.152 35.4416C303.143 35.9881 304.279 36.2614 305.559 36.2614C306.584 36.2614 307.498 36.0735 308.3 35.6978C309.12 35.3221 309.803 34.8097 310.35 34.1608C310.913 33.4947 311.315 32.7604 311.554 31.9577H308.224C308.002 32.4359 307.66 32.8287 307.199 33.1361C306.755 33.4264 306.2 33.5716 305.534 33.5716C304.646 33.5716 303.886 33.2898 303.254 32.7262C302.639 32.1626 302.298 31.3856 302.229 30.3951H311.887C311.904 30.173 311.912 29.9596 311.912 29.7546C311.93 29.5497 311.938 29.3533 311.938 29.1654C311.938 28.0041 311.665 26.9538 311.118 26.0145C310.589 25.0581 309.846 24.3067 308.89 23.7602C307.933 23.2137 306.832 22.9405 305.585 22.9405C304.253 22.9405 303.092 23.2308 302.101 23.8114C301.128 24.375 300.359 25.1692 299.796 26.1938C299.249 27.2185 298.976 28.3884 298.976 29.7034C298.976 31.0013 299.258 32.1456 299.821 33.1361C300.385 34.1266 301.162 34.8951 302.152 35.4416ZM303.459 26.2963C304.074 25.8352 304.782 25.6046 305.585 25.6046C306.422 25.6046 307.122 25.8523 307.686 26.3475C308.249 26.8428 308.557 27.5089 308.608 28.3457H302.28C302.451 27.4235 302.844 26.7403 303.459 26.2963ZM316.93 34.9805C317.733 35.6295 318.8 35.954 320.132 35.954H322.361V33.1617H320.773C320.124 33.1617 319.663 33.0507 319.389 32.8287C319.133 32.5896 319.005 32.1626 319.005 31.5478V25.9889H322.438V23.2479H319.005V19.8408H316.11L315.726 23.2479H313.549V25.9889H315.726V31.5222C315.726 33.1788 316.127 34.3316 316.93 34.9805ZM326.944 35.749C327.644 36.0906 328.541 36.2614 329.634 36.2614C330.692 36.2614 331.555 36.0394 332.221 35.5953C332.904 35.1513 333.433 34.5877 333.809 33.9046L334.117 35.954H336.909V28.1407C336.909 26.4842 336.388 25.2033 335.346 24.2982C334.304 23.393 332.878 22.9405 331.068 22.9405C330.009 22.9405 329.053 23.1283 328.199 23.504C327.345 23.8627 326.645 24.3836 326.098 25.0667C325.569 25.7498 325.262 26.5525 325.176 27.4747H328.378C328.498 26.8599 328.805 26.3988 329.301 26.0914C329.796 25.7669 330.376 25.6046 331.043 25.6046C331.777 25.6046 332.392 25.8096 332.887 26.2195C333.382 26.6293 333.63 27.2698 333.63 28.1407V28.4482H330.402C328.558 28.4482 327.174 28.8153 326.252 29.5497C325.33 30.284 324.869 31.2404 324.869 32.4188C324.869 33.119 325.04 33.7594 325.381 34.3401C325.723 34.9208 326.244 35.3904 326.944 35.749ZM332.554 32.7775C332.042 33.3923 331.316 33.6997 330.376 33.6997C329.762 33.6997 329.266 33.563 328.891 33.2898C328.515 33.0165 328.327 32.6323 328.327 32.137C328.327 31.6759 328.515 31.2917 328.891 30.9842C329.266 30.6598 329.89 30.4975 330.761 30.4975H333.553C333.416 31.4027 333.083 32.1626 332.554 32.7775Z" fill="#D9D9D9"/>
<path fill-rule="evenodd" clip-rule="evenodd" d="M292.5 7.00012C281.178 7.00012 272 16.1783 272 27.5001C272 38.822 281.178 48.0001 292.5 48.0001H326.5C337.822 48.0001 347 38.822 347 27.5001C347 16.1783 337.822 7.00012 326.5 7.00012H292.5ZM287.695 35.7234C288.413 36.0821 289.25 36.2614 290.206 36.2614C291.401 36.2614 292.469 35.9796 293.408 35.416C294.347 34.8354 295.09 34.0498 295.637 33.0592C296.183 32.0516 296.457 30.9074 296.457 29.6265C296.457 28.3457 296.183 27.2014 295.637 26.1938C295.09 25.1862 294.347 24.3921 293.408 23.8114C292.469 23.2308 291.401 22.9405 290.206 22.9405C289.13 22.9405 288.251 23.1539 287.567 23.5809C286.901 24.0078 286.363 24.5031 285.954 25.0667V17.5096H282.675V35.954H285.595L285.954 34.212C286.398 34.861 286.978 35.3648 287.695 35.7234ZM292.102 32.342C291.418 33.0422 290.556 33.3923 289.514 33.3923C288.455 33.3923 287.584 33.0422 286.901 32.342C286.235 31.6247 285.902 30.711 285.902 29.6009C285.902 28.4908 286.235 27.5857 286.901 26.8855C287.584 26.1682 288.455 25.8096 289.514 25.8096C290.556 25.8096 291.418 26.1682 292.102 26.8855C292.785 27.6028 293.126 28.5165 293.126 29.6265C293.126 30.7366 292.785 31.6418 292.102 32.342ZM302.152 35.4416C303.143 35.9881 304.279 36.2614 305.559 36.2614C306.584 36.2614 307.498 36.0735 308.3 35.6978C309.12 35.3221 309.803 34.8097 310.35 34.1608C310.913 33.4947 311.315 32.7604 311.554 31.9577H308.224C308.002 32.4359 307.66 32.8287 307.199 33.1361C306.755 33.4264 306.2 33.5716 305.534 33.5716C304.646 33.5716 303.886 33.2898 303.254 32.7262C302.639 32.1626 302.298 31.3856 302.229 30.3951H311.887C311.904 30.173 311.912 29.9596 311.912 29.7546C311.93 29.5497 311.938 29.3533 311.938 29.1654C311.938 28.0041 311.665 26.9538 311.118 26.0145C310.589 25.0581 309.846 24.3067 308.89 23.7602C307.933 23.2137 306.832 22.9405 305.585 22.9405C304.253 22.9405 303.092 23.2308 302.101 23.8114C301.128 24.375 300.359 25.1692 299.796 26.1938C299.249 27.2185 298.976 28.3884 298.976 29.7034C298.976 31.0013 299.258 32.1456 299.821 33.1361C300.385 34.1266 301.162 34.8951 302.152 35.4416ZM303.459 26.2963C304.074 25.8352 304.782 25.6046 305.585 25.6046C306.422 25.6046 307.122 25.8523 307.686 26.3475C308.249 26.8428 308.557 27.5089 308.608 28.3457H302.28C302.451 27.4235 302.844 26.7403 303.459 26.2963ZM316.93 34.9805C317.733 35.6295 318.8 35.954 320.132 35.954H322.361V33.1617H320.773C320.124 33.1617 319.663 33.0507 319.389 32.8287C319.133 32.5896 319.005 32.1626 319.005 31.5478V25.9889H322.438V23.2479H319.005V19.8408H316.11L315.726 23.2479H313.549V25.9889H315.726V31.5222C315.726 33.1788 316.127 34.3316 316.93 34.9805ZM326.944 35.749C327.644 36.0906 328.541 36.2614 329.634 36.2614C330.692 36.2614 331.555 36.0394 332.221 35.5953C332.904 35.1513 333.433 34.5877 333.809 33.9046L334.117 35.954H336.909V28.1407C336.909 26.4842 336.388 25.2033 335.346 24.2982C334.304 23.393 332.878 22.9405 331.068 22.9405C330.009 22.9405 329.053 23.1283 328.199 23.504C327.345 23.8627 326.645 24.3836 326.098 25.0667C325.569 25.7498 325.262 26.5525 325.176 27.4747H328.378C328.498 26.8599 328.805 26.3988 329.301 26.0914C329.796 25.7669 330.376 25.6046 331.043 25.6046C331.777 25.6046 332.392 25.8096 332.887 26.2195C333.382 26.6293 333.63 27.2698 333.63 28.1407V28.4482H330.402C328.558 28.4482 327.174 28.8153 326.252 29.5497C325.33 30.284 324.869 31.2404 324.869 32.4188C324.869 33.119 325.04 33.7594 325.381 34.3401C325.723 34.9208 326.244 35.3904 326.944 35.749ZM332.554 32.7775C332.042 33.3923 331.316 33.6997 330.376 33.6997C329.762 33.6997 329.266 33.563 328.891 33.2898C328.515 33.0165 328.327 32.6323 328.327 32.137C328.327 31.6759 328.515 31.2917 328.891 30.9842C329.266 30.6598 329.89 30.4975 330.761 30.4975H333.553C333.416 31.4027 333.083 32.1626 332.554 32.7775Z" fill="url(#paint0_linear_2310_24154)"/>
<defs>
<linearGradient id="paint0_linear_2310_24154" x1="272" y1="9.5625" x2="353.425" y2="45.8229" gradientUnits="userSpaceOnUse">
<stop stop-color="#FFE03F"/>
<stop offset="0.24999" stop-color="#66FF87"/>
<stop offset="0.515626" stop-color="#90C3FF"/>
<stop offset="0.723967" stop-color="#C9B6FF"/>
<stop offset="1" stop-color="#FF69CC"/>
</linearGradient>
<clipPath id="clip0_2310_24154">
<rect width="256" height="48" fill="white"/>
</clipPath>
</defs>
</svg>
