<svg width="49" height="10" viewBox="0 0 49 10" fill="none" xmlns="http://www.w3.org/2000/svg">
<path d="M13.516 9.14399C12.94 9.14399 12.432 9.00799 11.992 8.73599C11.552 8.46399 11.208 8.09199 10.96 7.61999C10.712 7.14799 10.588 6.61199 10.588 6.01199C10.588 5.41199 10.712 4.87999 10.96 4.41599C11.208 3.94399 11.552 3.57599 11.992 3.31199C12.44 3.03999 12.952 2.90399 13.528 2.90399C14 2.90399 14.412 2.99599 14.764 3.17999C15.124 3.36399 15.404 3.62399 15.604 3.95999V0.359985H16.876V8.99999H15.736L15.604 8.07599C15.412 8.35599 15.148 8.60399 14.812 8.81999C14.476 9.03599 14.044 9.14399 13.516 9.14399ZM13.744 8.03999C14.288 8.03999 14.732 7.85199 15.076 7.47599C15.428 7.09999 15.604 6.61599 15.604 6.02399C15.604 5.42399 15.428 4.93999 15.076 4.57199C14.732 4.19599 14.288 4.00799 13.744 4.00799C13.2 4.00799 12.752 4.19599 12.4 4.57199C12.048 4.93999 11.872 5.42399 11.872 6.02399C11.872 6.41599 11.952 6.76399 12.112 7.06799C12.272 7.37199 12.492 7.61199 12.772 7.78799C13.06 7.95599 13.384 8.03999 13.744 8.03999Z" fill="white"/>
<path d="M20.6758 9.14399C19.9558 9.14399 19.3878 8.91999 18.9718 8.47199C18.5638 8.02399 18.3598 7.35599 18.3598 6.46799V3.04799H19.6318V6.33599C19.6318 7.48799 20.1038 8.06399 21.0478 8.06399C21.5198 8.06399 21.9078 7.89599 22.2118 7.55999C22.5158 7.22399 22.6678 6.74399 22.6678 6.11999V3.04799H23.9398V8.99999H22.8118L22.7158 7.95599C22.5318 8.32399 22.2598 8.61599 21.8998 8.83199C21.5478 9.03999 21.1398 9.14399 20.6758 9.14399Z" fill="white"/>
<path d="M25.5579 8.99999V3.04799H26.6979L26.8059 4.17599C27.0139 3.78399 27.3019 3.47599 27.6699 3.25199C28.0459 3.01999 28.4979 2.90399 29.0259 2.90399V4.23599H28.6779C28.3259 4.23599 28.0099 4.29599 27.7299 4.41599C27.4579 4.52799 27.2379 4.72399 27.0699 5.00399C26.9099 5.27599 26.8299 5.65599 26.8299 6.14399V8.99999H25.5579Z" fill="white"/>
<path d="M31.7845 8.99999L29.5525 3.04799H30.8845L32.5405 7.78799L34.1965 3.04799H35.5165L33.2965 8.99999H31.7845Z" fill="white"/>
<path d="M39.0411 9.14399C38.4571 9.14399 37.9371 9.01599 37.4811 8.75999C37.0331 8.49599 36.6811 8.13199 36.4251 7.66799C36.1691 7.20399 36.0411 6.66399 36.0411 6.04799C36.0411 5.42399 36.1651 4.87599 36.4131 4.40399C36.6691 3.93199 37.0211 3.56399 37.4691 3.29999C37.9251 3.03599 38.4531 2.90399 39.0531 2.90399C39.6371 2.90399 40.1451 3.03599 40.5771 3.29999C41.0091 3.55599 41.3451 3.89999 41.5851 4.33199C41.8251 4.76399 41.9451 5.23999 41.9451 5.75999C41.9451 5.83999 41.9411 5.92799 41.9331 6.02399C41.9331 6.11199 41.9291 6.21199 41.9211 6.32399H37.2891C37.3291 6.89999 37.5171 7.33999 37.8531 7.64399C38.1971 7.93999 38.5931 8.08799 39.0411 8.08799C39.4011 8.08799 39.7011 8.00799 39.9411 7.84799C40.1891 7.67999 40.3731 7.45599 40.4931 7.17599H41.7651C41.6051 7.73599 41.2851 8.20399 40.8051 8.57999C40.3331 8.95599 39.7451 9.14399 39.0411 9.14399ZM39.0411 3.94799C38.6171 3.94799 38.2411 4.07599 37.9131 4.33199C37.5851 4.57999 37.3851 4.95599 37.3131 5.45999H40.6731C40.6491 4.99599 40.4851 4.62799 40.1811 4.35599C39.8771 4.08399 39.4971 3.94799 39.0411 3.94799Z" fill="white"/>
<path d="M45.6409 9.14399C44.8889 9.14399 44.2689 8.95999 43.7809 8.59199C43.2929 8.22399 43.0129 7.73599 42.9409 7.12799H44.2249C44.2889 7.39999 44.4409 7.63599 44.6809 7.83599C44.9209 8.02799 45.2369 8.12399 45.6289 8.12399C46.0129 8.12399 46.2929 8.04399 46.4689 7.88399C46.6449 7.72399 46.7329 7.53999 46.7329 7.33199C46.7329 7.02799 46.6089 6.82399 46.3609 6.71999C46.1209 6.60799 45.7849 6.50799 45.3529 6.41999C45.0169 6.34799 44.6809 6.25199 44.3449 6.13199C44.0169 6.01199 43.7409 5.84399 43.5169 5.62799C43.3009 5.40399 43.1929 5.10399 43.1929 4.72799C43.1929 4.20799 43.3929 3.77599 43.7929 3.43199C44.1929 3.07999 44.7529 2.90399 45.4729 2.90399C46.1369 2.90399 46.6729 3.06399 47.0809 3.38399C47.4969 3.70399 47.7409 4.15599 47.8129 4.73999H46.5889C46.5489 4.48399 46.4289 4.28399 46.2289 4.13999C46.0369 3.99599 45.7769 3.92399 45.4489 3.92399C45.1289 3.92399 44.8809 3.99199 44.7049 4.12799C44.5289 4.25599 44.4409 4.42399 44.4409 4.63199C44.4409 4.83999 44.5609 5.00399 44.8009 5.12399C45.0489 5.24399 45.3729 5.35199 45.7729 5.44799C46.1729 5.53599 46.5409 5.63999 46.8769 5.75999C47.2209 5.87199 47.4969 6.03999 47.7049 6.26399C47.9129 6.48799 48.0169 6.81599 48.0169 7.24799C48.0249 7.79199 47.8129 8.24399 47.3809 8.60399C46.9569 8.96399 46.3769 9.14399 45.6409 9.14399Z" fill="white"/>
<path d="M5.33333 2.33332C5.33333 3.0697 4.73638 3.66665 4 3.66665C3.26362 3.66665 2.66667 3.0697 2.66667 2.33332C2.66667 1.59694 3.26362 0.999986 4 0.999986C4.73638 0.999986 5.33333 1.59694 5.33333 2.33332Z" fill="white"/>
<path d="M1.33333 3.66665C2.06971 3.66665 2.66667 4.26361 2.66667 4.99999C2.66667 5.73637 2.06971 6.33332 1.33333 6.33332C0.596954 6.33332 3.21882e-08 5.73637 0 4.99999C-3.21882e-08 4.26361 0.596954 3.66665 1.33333 3.66665Z" fill="white"/>
<path d="M5.33333 7.66665C5.33333 8.40303 4.73638 8.99999 4 8.99999C3.26362 8.99999 2.66667 8.40303 2.66667 7.66665C2.66667 6.93027 3.26362 6.33332 4 6.33332C4.73638 6.33332 5.33333 6.93027 5.33333 7.66665Z" fill="white"/>
<path d="M6.66667 3.66665C7.40305 3.66665 8 4.26361 8 4.99999C8 5.73637 7.40305 6.33332 6.66667 6.33332C5.93029 6.33332 5.33333 5.73637 5.33333 4.99999C5.33333 4.26361 5.93029 3.66665 6.66667 3.66665Z" fill="white"/>
</svg>
