<svg width="50" height="50" viewBox="0 0 50 50" fill="none" xmlns="http://www.w3.org/2000/svg">
<path d="M31.4444 11.1111C31.4444 14.6703 28.5592 17.5556 25 17.5556C21.4408 17.5556 18.5555 14.6703 18.5555 11.1111C18.5555 7.55194 21.4408 4.66667 25 4.66667C28.5592 4.66667 31.4444 7.55194 31.4444 11.1111ZM11.1111 18.5556C14.6703 18.5556 17.5555 21.4408 17.5555 25C17.5555 28.5592 14.6703 31.4444 11.1111 31.4444C7.55193 31.4444 4.66666 28.5592 4.66666 25C4.66666 21.4408 7.55193 18.5556 11.1111 18.5556ZM31.4444 38.8889C31.4444 42.4481 28.5592 45.3333 25 45.3333C21.4408 45.3333 18.5555 42.4481 18.5555 38.8889C18.5555 35.3297 21.4408 32.4444 25 32.4444C28.5592 32.4444 31.4444 35.3297 31.4444 38.8889ZM38.8889 18.5556C42.4481 18.5556 45.3333 21.4408 45.3333 25C45.3333 28.5592 42.4481 31.4444 38.8889 31.4444C35.3297 31.4444 32.4444 28.5592 32.4444 25C32.4444 21.4408 35.3297 18.5556 38.8889 18.5556Z" fill="white" stroke="black"/>
</svg>
