<svg viewBox="0 0 24 24" xmlns="http://www.w3.org/2000/svg"><path fill="#FFF" d="M12 .28v0C5.37.27-.01 5.64-.01 12.27c-.01 5.19 3.34 9.8 8.28 11.41h.29v0c.55.03 1.02-.39 1.06-.94 0-.05 0-.09 0-.13v-.21c0-.17 0-.4 0-1.09v0c-.02-.14-.1-.26-.2-.33v0c-.12-.1-.28-.14-.42-.1 -2.68.58-3.25-1.1-3.29-1.21v0c-.34-.89-.94-1.66-1.72-2.19H3.98c-.05-.05-.1-.08-.15-.11h0c.11-.07.24-.09.38-.07v0c.51.07.94.4 1.15.88v0c.8 1.39 2.57 1.91 4 1.16v0c.14-.07.25-.2.29-.36h0c.03-.47.23-.9.56-1.23h0c.2-.19.22-.5.04-.71 -.09-.1-.2-.15-.32-.17 -2.37-.27-4.79-1.1-4.79-5.19v0c-.02-1.03.35-2.03 1.05-2.78h0c.13-.15.16-.36.09-.53H6.28C6 7.59 6 6.74 6.29 5.97V5.96c.92.16 1.79.55 2.52 1.15v0c.12.08.27.11.42.07v0c.89-.25 1.81-.37 2.74-.37l-.001-.001c.92 0 1.85.12 2.75.37h0c.14.03.29.01.41-.07v0c.73-.59 1.59-.99 2.52-1.15v0c.27.76.27 1.61 0 2.38v0c-.08.17-.05.38.09.53v0c.68.74 1.06 1.73 1.05 2.75 0 4.09-2.43 4.91-4.81 5.18v0c-.28.02-.48.27-.45.54 .01.12.07.24.17.33v0c.44.46.67 1.09.61 1.74v3.18 0c-.02.31.12.62.36.83v0c.3.22.69.29 1.06.19v0c6.28-2.11 9.67-8.91 7.57-15.19 -1.64-4.89-6.2-8.18-11.35-8.2Z"/></svg>