<svg viewBox="0 0 24 24" xmlns="http://www.w3.org/2000/svg"><g fill="#FFF"><path d="M1 6v0c.55 0 1-.45 1-1V2.5v0c0-.28.22-.5.5-.5H5v0c.55 0 1-.45 1-1 0-.56-.45-1-1-1H2v0C.89 0 0 .89 0 2v3 0c0 .55.44 1 1 1Z"/><path d="M22 0h-3v0c-.56 0-1 .44-1 1 0 .55.44 1 1 1h2.5v0c.27 0 .5.22.5.5V5v0c0 .55.44 1 1 1 .55 0 1-.45 1-1V2v0c0-1.11-.9-2-2-2Z"/><path d="M19 17V7v0c0-1.11-.9-2-2-2H7v0c-1.11 0-2 .89-2 2v10 0c0 1.1.89 2 2 2h10v0c1.1 0 2-.9 2-2Zm-2-.5v0c0 .27-.23.5-.5.5h-9v0c-.28 0-.5-.23-.5-.5v-9 0c0-.28.22-.5.5-.5h9v0c.27 0 .5.22.5.5Z"/><path d="M5 22H2.5v0c-.28 0-.5-.23-.5-.5V19v0c0-.56-.45-1-1-1 -.56 0-1 .44-1 1v3 0c0 1.1.89 2 2 2h3v0c.55 0 1-.45 1-1 0-.56-.45-1-1-1Z"/><path d="M23 18v0c-.56 0-1 .44-1 1v2.5 0c0 .27-.23.5-.5.5H19v0c-.56 0-1 .44-1 1 0 .55.44 1 1 1h3v0c1.1 0 2-.9 2-2v-3 0c0-.56-.45-1-1-1Z"/><path d="M10 2h4v0c.55 0 1-.45 1-1 0-.56-.45-1-1-1h-4v0c-.56 0-1 .44-1 1 0 .55.44 1 1 1Z"/><path d="M14 22h-4v0c-.56 0-1 .44-1 1 0 .55.44 1 1 1h4v0c.55 0 1-.45 1-1 0-.56-.45-1-1-1Z"/><path d="M23 9v0c-.56 0-1 .44-1 1v4 0c0 .55.44 1 1 1 .55 0 1-.45 1-1v-4 0c0-.56-.45-1-1-1Z"/><path d="M1 15v0c.55 0 1-.45 1-1v-4 0c0-.56-.45-1-1-1 -.56 0-1 .44-1 1v4 0c0 .55.44 1 1 1Z"/></g></svg>