<svg viewBox="0 0 24 24" xmlns="http://www.w3.org/2000/svg"><g fill="#FFF"><path d="M6.17 6.16l0-.001c2.18-2.2 5.4-2.98 8.35-2.03v0c.65.2 1.36-.16 1.57-.81 .2-.66-.16-1.37-.81-1.57l-.001-.001C9.619-.07 3.56 3.04 1.75 8.708c-.77 2.39-.67 4.97.27 7.3l0 0c.04.1 0 .23-.1.3l-1.4.92H.52c-.47.3-.6.92-.29 1.38 .14.22.37.37.63.43l4.407.9h0c.06.01.13.02.2.02v0c.47-.01.88-.34.97-.8l.91-4.41v0c.11-.55-.24-1.07-.78-1.19 -.26-.06-.53-.01-.76.14l-1.34.88v0c-.12.07-.28.04-.35-.08 -.02-.02-.03-.05-.03-.07h0c-.94-2.94-.16-6.16 2.02-8.338Z"/><path d="M23.883 5.83v0c-.07-.4-.37-.72-.77-.81l-4.39-1v0c-.54-.13-1.08.21-1.2.74 -.01 0-.01 0-.01 0l-1 4.38v0c-.13.53.21 1.07.75 1.19 .25.05.52.01.75-.13l1.44-.91v0c.06-.05.14-.06.21-.03v0c.07.02.12.08.15.15v0c1.4 4.33-.97 8.98-5.31 10.39 -1.62.52-3.36.53-4.99.03v0c-.66-.23-1.37.13-1.59.78 -.23.65.13 1.36.78 1.58 .02 0 .04.01.06.01v0c5.67 1.75 11.69-1.43 13.44-7.1 .72-2.36.62-4.89-.3-7.18v0c-.05-.12-.01-.24.1-.3l1.346-.85v0c.34-.22.52-.63.45-1.03Z"/></g></svg>