<svg viewBox="0 0 24 24" xmlns="http://www.w3.org/2000/svg"><path fill="none" d="M0 0h24v24H0Z" transform="rotate(-180 12 12)"/><g fill="#FFF"><path d="M19.94 6.35c-1.82-2.56-4.76-4.11-7.95-4.11 -5.39 0-9.75 4.36-9.75 9.75 0 .55.05 1.12.15 1.7 .07.4.46.67.86.6 .4-.08.67-.47.6-.87 -.09-.51-.14-.98-.14-1.45 0-4.56 3.69-8.25 8.25-8.25 2.7 0 5.17 1.31 6.72 3.47 .24.33.7.41 1.04.17 .33-.25.41-.71.17-1.05ZM5.17 19.58v-2.39l-.75.75H6.8c.41 0 .75-.34.75-.75 0-.42-.34-.75-.75-.75H4.41c-.42 0-.75.33-.75.75v2.38c0 .41.33.75.75.75 .41 0 .75-.34.75-.75Z"/><path d="M4.05 17.64c1.81 2.55 4.75 4.1 7.94 4.1 5.38 0 9.75-4.37 9.75-9.75 0-.56-.06-1.13-.16-1.71 -.08-.41-.47-.68-.87-.61 -.41.07-.68.46-.61.86 .08.5.13.97.13 1.44 0 4.55-3.7 8.25-8.25 8.25 -2.71 0-5.18-1.32-6.73-3.48 -.25-.34-.71-.42-1.05-.18 -.34.24-.42.7-.18 1.04ZM18.81 4.4v2.38l.75-.75h-2.39c-.42 0-.75.33-.75.75 0 .41.33.75.75.75h2.38c.41 0 .75-.34.75-.75V4.39c0-.42-.34-.75-.75-.75 -.42 0-.75.33-.75.75Z"/></g></svg>