<svg viewBox="0 0 24 24" xmlns="http://www.w3.org/2000/svg"><path fill="#FFF" d="M3.5 19.5v0c0 .55.44 1 1 1h4v0c.55-.01.99-.45.99-1.01 -.01-.27-.11-.52-.3-.71l-.94-.94v0c-.1-.1-.1-.26-.01-.36 0-.01 0-.01 0-.01l9.23-9.24v0c.09-.1.25-.1.35-.01 0 0 0 0 0 0l.93.93v0c.18.18.44.29.7.29v0c.13 0 .26-.03.38-.08V9.35c.37-.16.61-.52.61-.93v-4 0c0-.56-.45-1-1-1h-4v0c-.56 0-1 .44-1 1 0 .26.1.51.29.7l.93.93v0c.09.09.09.25 0 .35 -.01 0-.01 0-.01 0l-9.24 9.23v0c-.1.09-.26.09-.36 0 -.01-.01-.01-.01-.01-.01l-.94-.94v0c-.4-.4-1.03-.4-1.42 0 -.19.18-.3.44-.3.7Z"/></svg>