<svg viewBox="0 0 24 24" xmlns="http://www.w3.org/2000/svg"><g fill="#FFF"><path d="M12 0v0c-.56 0-1 .44-1 1v22 0c0 .55.44 1 1 1 .55 0 1-.45 1-1V1v0c0-.56-.45-1-1-1Z"/><path d="M8 2v0c-.56 0-1 .44-1 1v18 0c0 .55.44 1 1 1 .55 0 1-.45 1-1V3v0c0-.56-.45-1-1-1Z"/><path d="M4 6v0c-.56 0-1 .44-1 1v10 0c0 .55.44 1 1 1 .55 0 1-.45 1-1V7v0c0-.56-.45-1-1-1Z"/><path d="M1 10v0c-.56 0-1 .44-1 1v2 0c0 .55.44 1 1 1 .55 0 1-.45 1-1v-2 0c0-.56-.45-1-1-1Z"/><path d="M16 2v0c-.56 0-1 .44-1 1v18 0c0 .55.44 1 1 1 .55 0 1-.45 1-1V3v0c0-.56-.45-1-1-1Z"/><path d="M20 6v0c-.56 0-1 .44-1 1v10 0c0 .55.44 1 1 1 .55 0 1-.45 1-1V7v0c0-.56-.45-1-1-1Z"/><path d="M23 10v0c-.56 0-1 .44-1 1v2 0c0 .55.44 1 1 1 .55 0 1-.45 1-1v-2 0c0-.56-.45-1-1-1Z"/></g></svg>